<svg width="725" height="311" viewBox="0 0 725 311" fill="none" xmlns="http://www.w3.org/2000/svg">
<path d="M96.05 220.2C82.75 220.2 72.1 217.7 64.1 212.7C56.1 207.6 52.1 199.85 52.1 189.45C52.1 183.95 53.05 179.75 54.95 176.85C56.85 173.95 59.65 172.5 63.35 172.5C66.05 172.5 68.25 173.2 69.95 174.6C71.65 176 72.5 177.8 72.5 180C72.5 182 72.35 183.75 72.05 185.25C72.05 185.65 71.95 186.35 71.75 187.35C71.65 188.35 71.6 189.4 71.6 190.5C71.6 195 73.85 198.35 78.35 200.55C82.95 202.75 89.35 203.85 97.55 203.85C106.05 203.85 112.7 202.35 117.5 199.35C122.3 196.25 124.7 191.95 124.7 186.45C124.7 183.05 123.6 180.15 121.4 177.75C119.2 175.25 116.45 173.2 113.15 171.6C109.85 169.9 105.2 167.85 99.2 165.45C91.5 162.45 85.2 159.6 80.3 156.9C75.5 154.2 71.35 150.55 67.85 145.95C64.45 141.25 62.75 135.45 62.75 128.55C62.75 121.35 64.65 114.95 68.45 109.35C72.35 103.75 77.9 99.4 85.1 96.3C92.4 93.2 100.95 91.65 110.75 91.65C118.05 91.65 124.75 92.75 130.85 94.95C136.95 97.05 141.8 100.3 145.4 104.7C149.1 109.1 150.95 114.5 150.95 120.9C150.95 127.2 150 131.95 148.1 135.15C146.2 138.35 143.4 139.95 139.7 139.95C137.1 139.95 134.9 139.15 133.1 137.55C131.4 135.95 130.55 134.05 130.55 131.85C130.55 129.95 130.7 128.2 131 126.6C131.3 123.6 131.45 121.7 131.45 120.9C131.45 116.7 129.4 113.5 125.3 111.3C121.2 109.1 116.1 108 110 108C101.4 108 94.8 109.6 90.2 112.8C85.7 115.9 83.45 120.3 83.45 126C83.45 129.8 84.6 133.05 86.9 135.75C89.3 138.45 92.25 140.7 95.75 142.5C99.25 144.3 104.15 146.45 110.45 148.95C118.05 152.05 124.15 154.85 128.75 157.35C133.35 159.85 137.25 163.25 140.45 167.55C143.75 171.85 145.4 177.15 145.4 183.45C145.4 195.25 140.9 204.35 131.9 210.75C123 217.05 111.05 220.2 96.05 220.2ZM223.639 185.55C224.939 185.55 225.939 186.15 226.639 187.35C227.439 188.55 227.839 190.2 227.839 192.3C227.839 196.3 226.889 199.4 224.989 201.6C220.689 206.9 215.989 211.25 210.889 214.65C205.789 218.05 199.939 219.75 193.339 219.75C172.939 219.75 162.739 205.4 162.739 176.7C162.739 172.3 162.889 167.85 163.189 163.35H157.339C154.339 163.35 152.289 162.8 151.189 161.7C150.189 160.6 149.689 158.85 149.689 156.45C149.689 150.85 151.939 148.05 156.439 148.05H164.989C166.689 137.05 169.289 127 172.789 117.9C176.289 108.8 180.489 101.55 185.389 96.15C190.389 90.75 195.739 88.05 201.439 88.05C205.639 88.05 208.939 89.9 211.339 93.6C213.739 97.3 214.939 101.95 214.939 107.55C214.939 123.05 208.439 136.55 195.439 148.05H212.239C213.839 148.05 214.989 148.4 215.689 149.1C216.389 149.8 216.739 151.1 216.739 153C216.739 159.9 211.089 163.35 199.789 163.35H181.489C181.289 168.35 181.189 172.25 181.189 175.05C181.189 185.45 182.389 192.75 184.789 196.95C187.289 201.15 191.189 203.25 196.489 203.25C200.789 203.25 204.589 201.95 207.889 199.35C211.189 196.75 215.089 192.85 219.589 187.65C220.789 186.25 222.139 185.55 223.639 185.55ZM197.389 102.45C195.889 102.45 194.189 104.35 192.289 108.15C190.489 111.85 188.739 117.05 187.039 123.75C185.439 130.35 184.089 137.7 182.989 145.8C188.889 140.7 193.289 135 196.189 128.7C199.189 122.3 200.689 116.5 200.689 111.3C200.689 105.4 199.589 102.45 197.389 102.45ZM234.076 219.75C227.876 219.75 222.926 217.5 219.226 213C215.526 208.5 213.676 202.6 213.676 195.3C213.676 187.3 215.526 179.75 219.226 172.65C222.926 165.45 227.826 159.7 233.926 155.4C240.126 151 246.676 148.8 253.576 148.8C255.776 148.8 257.226 149.25 257.926 150.15C258.726 150.95 259.376 152.45 259.876 154.65C261.976 154.25 264.176 154.05 266.476 154.05C271.376 154.05 273.826 155.8 273.826 159.3C273.826 161.4 273.076 166.4 271.576 174.3C269.276 185.8 268.126 193.8 268.126 198.3C268.126 199.8 268.476 201 269.176 201.9C269.976 202.8 270.976 203.25 272.176 203.25C274.076 203.25 276.376 202.05 279.076 199.65C281.776 197.15 285.426 193.15 290.026 187.65C291.226 186.25 292.576 185.55 294.076 185.55C295.376 185.55 296.376 186.15 297.076 187.35C297.876 188.55 298.276 190.2 298.276 192.3C298.276 196.3 297.326 199.4 295.426 201.6C291.326 206.7 286.976 211 282.376 214.5C277.776 218 273.326 219.75 269.026 219.75C265.726 219.75 262.676 218.65 259.876 216.45C257.176 214.15 255.126 211.05 253.726 207.15C248.526 215.55 241.976 219.75 234.076 219.75ZM239.476 204.6C241.676 204.6 243.776 203.3 245.776 200.7C247.776 198.1 249.226 194.65 250.126 190.35L255.676 162.75C251.476 162.85 247.576 164.45 243.976 167.55C240.476 170.55 237.676 174.55 235.576 179.55C233.476 184.55 232.426 189.85 232.426 195.45C232.426 198.55 233.026 200.85 234.226 202.35C235.526 203.85 237.276 204.6 239.476 204.6ZM338.585 149.1C340.885 149.1 342.485 149.4 343.385 150C344.285 150.6 344.735 151.6 344.735 153C344.735 155.4 343.435 163.95 340.835 178.65C338.535 192.75 337.185 201.1 336.785 203.7C333.085 229.4 327.985 249.75 321.485 264.75C314.985 279.75 306.335 287.25 295.535 287.25C290.435 287.25 286.285 285.65 283.085 282.45C279.885 279.35 278.285 275.25 278.285 270.15C278.285 265.45 279.335 260.65 281.435 255.75C283.635 250.85 287.635 245.2 293.435 238.8C299.335 232.5 307.635 225.25 318.335 217.05L318.785 213.6C319.485 209.9 320.285 204.6 321.185 197.7C319.185 204.9 316.385 210.4 312.785 214.2C309.185 217.9 305.385 219.75 301.385 219.75C296.885 219.75 293.185 217.7 290.285 213.6C287.485 209.4 286.085 204.2 286.085 198C286.085 190.5 286.585 183.65 287.585 177.45C288.585 171.15 290.235 164.5 292.535 157.5C293.535 154.5 294.935 152.35 296.735 151.05C298.535 149.75 301.385 149.1 305.285 149.1C307.485 149.1 308.985 149.45 309.785 150.15C310.685 150.85 311.135 151.9 311.135 153.3C311.135 154.1 310.585 156.8 309.485 161.4C308.485 165.1 307.685 168.45 307.085 171.45C306.285 175.55 305.585 179.5 304.985 183.3C304.385 187 304.085 190.05 304.085 192.45C304.085 196.25 305.135 198.15 307.235 198.15C308.735 198.15 310.585 196.65 312.785 193.65C315.085 190.65 317.485 186.1 319.985 180C322.585 173.9 325.085 166.4 327.485 157.5C328.285 154.5 329.485 152.35 331.085 151.05C332.785 149.75 335.285 149.1 338.585 149.1ZM297.185 272.7C299.685 272.7 302.485 269.8 305.585 264C308.685 258.2 311.785 248.55 314.885 235.05C307.185 241.55 301.585 247.45 298.085 252.75C294.685 258.15 292.985 262.85 292.985 266.85C292.985 268.55 293.285 269.95 293.885 271.05C294.585 272.15 295.685 272.7 297.185 272.7ZM432.165 219.75C426.365 219.75 419.815 219.25 412.515 218.25C408.515 217.75 405.765 216.7 404.265 215.1C402.765 213.5 402.115 210.9 402.315 207.3C403.015 197.4 404.665 185.2 407.265 170.7C409.865 156.1 413.015 142.05 416.715 128.55C417.415 126.05 418.815 124.3 420.915 123.3C423.015 122.3 425.765 121.8 429.165 121.8C435.265 121.8 438.315 123.5 438.315 126.9C438.315 128.3 438.015 129.9 437.415 131.7C434.815 139.7 432.215 150.45 429.615 163.95C427.015 177.35 425.165 190.15 424.065 202.35C427.065 202.65 430.465 202.8 434.265 202.8C451.765 202.8 464.815 197.5 473.415 186.9C482.115 176.3 486.465 162.15 486.465 144.45C486.465 132.55 483.065 123.35 476.265 116.85C469.465 110.35 459.865 107.1 447.465 107.1C439.465 107.1 431.515 108.35 423.615 110.85C415.815 113.35 408.765 116.65 402.465 120.75C401.165 121.65 399.765 122.1 398.265 122.1C396.565 122.1 395.215 121.4 394.215 120C393.215 118.5 392.715 116.7 392.715 114.6C392.715 112.2 393.115 110.25 393.915 108.75C394.715 107.15 396.065 105.7 397.965 104.4C404.865 99.7 412.965 96.15 422.265 93.75C431.565 91.25 440.515 90 449.115 90C461.315 90 471.865 92.15 480.765 96.45C489.665 100.65 496.515 106.85 501.315 115.05C506.115 123.25 508.515 133.15 508.515 144.75C508.515 159.85 505.515 173.05 499.515 184.35C493.515 195.55 484.765 204.25 473.265 210.45C461.765 216.65 448.065 219.75 432.165 219.75ZM534.076 219.75C527.876 219.75 522.926 217.5 519.226 213C515.526 208.5 513.676 202.6 513.676 195.3C513.676 187.3 515.526 179.75 519.226 172.65C522.926 165.45 527.826 159.7 533.926 155.4C540.126 151 546.676 148.8 553.576 148.8C555.776 148.8 557.226 149.25 557.926 150.15C558.726 150.95 559.376 152.45 559.876 154.65C561.976 154.25 564.176 154.05 566.476 154.05C571.376 154.05 573.826 155.8 573.826 159.3C573.826 161.4 573.076 166.4 571.576 174.3C569.276 185.8 568.126 193.8 568.126 198.3C568.126 199.8 568.476 201 569.176 201.9C569.976 202.8 570.976 203.25 572.176 203.25C574.076 203.25 576.376 202.05 579.076 199.65C581.776 197.15 585.426 193.15 590.026 187.65C591.226 186.25 592.576 185.55 594.076 185.55C595.376 185.55 596.376 186.15 597.076 187.35C597.876 188.55 598.276 190.2 598.276 192.3C598.276 196.3 597.326 199.4 595.426 201.6C591.326 206.7 586.976 211 582.376 214.5C577.776 218 573.326 219.75 569.026 219.75C565.726 219.75 562.676 218.65 559.876 216.45C557.176 214.15 555.126 211.05 553.726 207.15C548.526 215.55 541.976 219.75 534.076 219.75ZM539.476 204.6C541.676 204.6 543.776 203.3 545.776 200.7C547.776 198.1 549.226 194.65 550.126 190.35L555.676 162.75C551.476 162.85 547.576 164.45 543.976 167.55C540.476 170.55 537.676 174.55 535.576 179.55C533.476 184.55 532.426 189.85 532.426 195.45C532.426 198.55 533.026 200.85 534.226 202.35C535.526 203.85 537.276 204.6 539.476 204.6ZM658.005 185.55C659.305 185.55 660.305 186.15 661.005 187.35C661.805 188.55 662.205 190.2 662.205 192.3C662.205 196 661.255 199.1 659.355 201.6C654.655 207.7 648.805 212.5 641.805 216C634.905 219.5 627.105 221.25 618.405 221.25C611.605 221.25 605.705 220.25 600.705 218.25C595.705 216.15 591.855 213.35 589.155 209.85C586.555 206.25 585.255 202.25 585.255 197.85C585.255 191.25 587.905 185.4 593.205 180.3C598.505 175.2 606.105 170.3 616.005 165.6L591.405 166.2C589.205 166.3 587.505 165.55 586.305 163.95C585.205 162.25 584.655 160.25 584.655 157.95C584.655 155.55 585.205 153.45 586.305 151.65C587.505 149.75 589.105 148.8 591.105 148.8C595.705 148.8 601.855 149.15 609.555 149.85C611.155 149.95 614.055 150.15 618.255 150.45C622.555 150.75 626.155 150.9 629.055 150.9C630.055 150.9 631.955 150.5 634.755 149.7C635.255 149.6 636.205 149.35 637.605 148.95C639.105 148.55 640.355 148.35 641.355 148.35C642.955 148.35 644.255 149.05 645.255 150.45C646.355 151.85 646.905 154 646.905 156.9C646.905 160.1 646.155 162.6 644.655 164.4C643.155 166.2 640.805 167.8 637.605 169.2C628.505 173.1 620.955 177.3 614.955 181.8C608.955 186.2 605.955 190.6 605.955 195C605.955 197.8 607.255 200.1 609.855 201.9C612.455 203.7 616.305 204.6 621.405 204.6C627.005 204.6 632.655 203.2 638.355 200.4C644.155 197.6 649.355 193.35 653.955 187.65C655.155 186.25 656.505 185.55 658.005 185.55ZM703.652 190.05C704.952 190.05 705.952 190.65 706.652 191.85C707.452 193.05 707.852 194.7 707.852 196.8C707.852 200.4 707.002 203.5 705.302 206.1C702.502 210.4 698.802 213.75 694.202 216.15C689.702 218.55 684.302 219.75 678.002 219.75C668.402 219.75 660.952 216.9 655.652 211.2C650.352 205.4 647.702 197.6 647.702 187.8C647.702 180.9 649.152 174.5 652.052 168.6C654.952 162.6 658.952 157.85 664.052 154.35C669.252 150.85 675.102 149.1 681.602 149.1C687.402 149.1 692.052 150.85 695.552 154.35C699.052 157.75 700.802 162.4 700.802 168.3C700.802 175.2 698.302 181.15 693.302 186.15C688.402 191.05 680.002 194.95 668.102 197.85C670.502 202.45 674.552 204.75 680.252 204.75C684.352 204.75 687.702 203.8 690.302 201.9C693.002 200 696.102 196.8 699.602 192.3C700.802 190.8 702.152 190.05 703.652 190.05ZM679.052 163.8C675.352 163.8 672.202 165.95 669.602 170.25C667.102 174.55 665.852 179.75 665.852 185.85V186.15C671.752 184.75 676.402 182.65 679.802 179.85C683.202 177.05 684.902 173.8 684.902 170.1C684.902 168.2 684.352 166.7 683.252 165.6C682.252 164.4 680.852 163.8 679.052 163.8Z" fill="#0A5D2C"/>
<path d="M73 70L107.5 43L142 70" stroke="#0A5D2C" stroke-width="17" stroke-linecap="round" stroke-linejoin="round"/>
</svg>
