<svg width="227" height="82" viewBox="0 0 227 82" fill="none" xmlns="http://www.w3.org/2000/svg">
<path d="M47.65 26.05L47.9 24.75C47.7667 22.95 46.55 22.05 44.25 22.05C42.9167 22.05 41.75 22.5333 40.75 23.5C39.7833 24.4333 39.3 25.4333 39.3 26.5C39.3 27.5333 39.7333 28.45 40.6 29.25C41.5 30.0167 42.5667 30.7167 43.8 31.35C45.0667 31.95 46.3167 32.6167 47.55 33.35C48.8167 34.05 49.8833 34.9667 50.75 36.1C51.65 37.2333 52.1 38.5167 52.1 39.95C52.1 42.9167 50.9333 45.25 48.6 46.95C46.2667 48.65 43.75 49.5 41.05 49.5C38.35 49.5 36.1 49.0167 34.3 48.05C32.5 47.05 31.6 45.55 31.6 43.55C31.6 42.4833 31.9667 41.5167 32.7 40.65C33.4333 39.7833 34.4833 39.35 35.85 39.35C36.3833 39.35 36.8667 39.5 37.3 39.8C37.7333 40.1 38 40.5 38.1 41C38.1 41.5 37.8 41.75 37.2 41.75C36.0667 41.75 35.5 42.2333 35.5 43.2C35.5333 44.3 36.05 45.3 37.05 46.2C38.0833 47.1 39.5167 47.55 41.35 47.55C43.2167 47.55 44.8 46.9167 46.1 45.65C47.4333 44.3833 48.1 42.85 48.1 41.05C48.1 39.85 47.65 38.7667 46.75 37.8C45.85 36.8333 44.7667 36.0167 43.5 35.35C42.2333 34.65 40.95 33.95 39.65 33.25C38.3833 32.55 37.3 31.7 36.4 30.7C35.5 29.7 35.05 28.5667 35.05 27.3C35.05 25.0667 36 23.2833 37.9 21.95C39.8333 20.6167 42.0167 19.95 44.45 19.95C46.0833 19.95 47.5667 20.2833 48.9 20.95C50.2333 21.6167 50.9167 22.6333 50.95 24C50.95 24.8 50.75 25.4667 50.35 26C49.95 26.5333 49.4 26.8 48.7 26.8C48.0333 26.8 47.6833 26.55 47.65 26.05ZM66.1258 40.85C63.4924 46.45 61.2591 49.25 59.4258 49.25C57.6258 49.25 56.5591 49.0333 56.2258 48.6C55.9258 48.1667 55.7758 46.7333 55.7758 44.3C55.7758 41.8667 56.0091 38.35 56.4758 33.75C54.8091 33.4167 53.9258 32.7333 53.8258 31.7C53.8258 31.1667 54.1758 30.9 54.8758 30.9C55.5758 30.9 56.1924 31.0333 56.7258 31.3C57.0258 28.9 57.3758 26.4667 57.7758 24C57.8758 23.3667 58.1924 22.7667 58.7258 22.2C59.2591 21.6333 59.7758 21.35 60.2758 21.35C60.7091 21.35 60.9258 22.0333 60.9258 23.4C60.9258 24.0333 60.6924 26.95 60.2258 32.15C61.1258 31.9833 62.1091 31.65 63.1758 31.15C64.2758 30.65 64.9258 30.4 65.1258 30.4C65.7258 30.4 66.0258 30.5833 66.0258 30.95C66.0591 31.2833 65.4424 31.75 64.1758 32.35C62.9091 32.9167 61.5424 33.35 60.0758 33.65C59.6758 38.5167 59.4758 42.2 59.4758 44.7C59.4758 46.0333 59.6758 46.7 60.0758 46.7C60.6758 46.6667 61.4758 45.9667 62.4758 44.6C63.4758 43.2333 64.4591 41.4667 65.4258 39.3C66.4258 37.1 67.0258 36 67.2258 36C67.4591 36 67.5758 36.1333 67.5758 36.4C67.5758 37.3333 67.0924 38.8167 66.1258 40.85ZM79.0344 49.25C77.7344 49.25 76.751 48.9833 76.0844 48.45C75.851 48.2167 75.7344 47.6333 75.7344 46.7C75.7344 45.7333 75.7677 44.45 75.8344 42.85C74.9677 45.0167 74.101 46.6333 73.2344 47.7C72.401 48.7333 71.3177 49.25 69.9844 49.25C68.651 49.25 67.4844 48.6333 66.4844 47.4C65.4844 46.1333 64.9844 44.1667 64.9844 41.5C64.9844 38.8 65.7344 36.4167 67.2344 34.35C68.7677 32.2833 70.7677 31.25 73.2344 31.25C74.301 31.25 75.501 31.95 76.8344 33.35C77.101 32.9833 77.5677 32.55 78.2344 32.05C78.9344 31.5167 79.5177 31.25 79.9844 31.25C80.4844 31.25 80.7344 31.8833 80.7344 33.15C80.7344 33.4833 80.6344 34.1333 80.4344 35.1C80.2677 36.0667 80.0677 36.7667 79.8344 37.2C79.5344 37.9667 79.3844 40.6833 79.3844 45.35C79.3844 46.25 79.4844 46.7 79.6844 46.7C80.251 46.6667 81.0344 45.9667 82.0344 44.6C83.0344 43.2 84.0177 41.4167 84.9844 39.25C85.9844 37.0833 86.5844 36 86.7844 36C87.0177 36 87.1344 36.1333 87.1344 36.4C87.1344 37.3333 86.651 38.8167 85.6844 40.85C83.051 46.45 80.8344 49.25 79.0344 49.25ZM72.9344 33.25C72.001 33.25 71.001 33.95 69.9344 35.35C68.901 36.7167 68.3844 38.3333 68.3844 40.2C68.3844 42.0667 68.651 43.6 69.1844 44.8C69.751 46 70.4844 46.6 71.3844 46.6C72.4844 46.6 74.101 43.85 76.2344 38.35C76.2677 38.0833 76.301 37.6333 76.3344 37C76.401 36.3333 76.451 35.8333 76.4844 35.5C76.1844 34.9667 75.651 34.4667 74.8844 34C74.151 33.5 73.501 33.25 72.9344 33.25ZM84.125 44.65L84.425 39.05C84.425 35.4833 84.5917 33.5333 84.925 33.2C85.2583 32.8667 85.8417 32.3833 86.675 31.75C87.5417 31.0833 88.1583 30.75 88.525 30.75C88.925 30.75 89.175 30.8167 89.275 30.95C89.375 31.0833 89.425 31.35 89.425 31.75C89.425 33.1833 89.1083 34.6333 88.475 36.1C87.975 39.1667 87.725 41.6833 87.725 43.65C87.725 45.6167 87.9583 46.6 88.425 46.6C89.225 46.6 90.1417 45.9 91.175 44.5C92.2417 43.0667 93.325 40.9667 94.425 38.2C94.4583 37.4667 94.4917 36.7 94.525 35.9C94.5583 35.0667 94.5917 34.4667 94.625 34.1C94.6583 33.7 94.675 33.4167 94.675 33.25C94.7083 33.0833 95.175 32.6333 96.075 31.9C96.975 31.1333 97.6583 30.75 98.125 30.75C98.625 30.75 98.875 31.3833 98.875 32.65C98.875 32.9833 98.775 33.6333 98.575 34.6C98.4083 35.5667 98.2083 36.2667 97.975 36.7C97.7083 39.0667 97.525 41.1333 97.425 42.9C100.692 38.7667 102.425 36.5833 102.625 36.35C102.858 36.1167 103.058 36 103.225 36C103.558 36 103.725 36.1667 103.725 36.5C103.725 36.7 103.658 36.9167 103.525 37.15C102.458 38.7167 100.358 41.4667 97.225 45.4C97.025 49.3667 96.8917 52.0667 96.825 53.5C96.6583 57.7333 96.0583 60.7 95.025 62.4C94.025 64.1333 92.225 65 89.625 65C88.4917 65 87.425 64.65 86.425 63.95C85.4583 63.2833 84.975 62.1 84.975 60.4C84.975 58.7333 85.6083 57.0167 86.875 55.25C88.175 53.4833 90.525 50.7667 93.925 47.1L94.225 41.65C93.0917 44.15 91.975 46.05 90.875 47.35C89.775 48.6167 88.5583 49.25 87.225 49.25C85.8917 49.25 85.0417 48.9167 84.675 48.25C84.3083 47.5833 84.125 46.3833 84.125 44.65ZM93.775 49.45C89.975 53.55 88.075 56.8333 88.075 59.3C88.075 60.4333 88.275 61.3667 88.675 62.1C89.075 62.8333 89.625 63.2 90.325 63.2C91.3917 63.2 92.1417 62.6167 92.575 61.45C93.0083 60.2833 93.325 57.9167 93.525 54.35L93.775 49.45ZM115.466 31.05L115.766 34.25C115.766 34.5833 115.583 34.85 115.216 35.05C114.883 35.25 114.6 35.35 114.366 35.35C113.9 35.35 113.483 34.9833 113.116 34.25C112.783 33.4833 112.616 32.7833 112.616 32.15C112.616 29.6833 113.466 27.6 115.166 25.9C116.9 24.1667 119.083 22.8667 121.716 22C121.716 20.8667 121.95 19.8 122.416 18.8C122.916 17.7667 123.683 17.25 124.716 17.25C125.15 17.25 125.366 17.8667 125.366 19.1V21.2C126.433 21.0667 127.216 21 127.716 21C132.15 21 135.65 22.25 138.216 24.75C140.816 27.2167 142.116 30.3333 142.116 34.1C142.116 36.7 141.65 39 140.716 41C139.783 43 138.516 44.5833 136.916 45.75C133.716 48.0833 129.883 49.25 125.416 49.25H124.366C124.266 50.2167 124.133 50.7 123.966 50.7C122.4 50.7 121.35 50.4833 120.816 50.05C120.583 49.8167 120.45 49.4167 120.416 48.85C117.45 48.0167 115.966 47.1 115.966 46.1C115.966 45.7667 116.083 45.5167 116.316 45.35C116.55 45.15 116.8 45.05 117.066 45.05C117.366 45.05 118.483 45.45 120.416 46.25C120.716 37.5167 121.1 30.0167 121.566 23.75C119.733 24.3833 118.25 25.3333 117.116 26.6C116.016 27.8667 115.466 29.35 115.466 31.05ZM126.366 22.95C125.9 22.95 125.55 22.9667 125.316 23C125.183 28.8333 125.016 33.7333 124.816 37.7C124.65 42.8667 124.533 46.1167 124.466 47.45C125.133 47.55 125.833 47.6 126.566 47.6C129.733 47.6 132.483 46.4333 134.816 44.1C137.15 41.7333 138.316 38.8333 138.316 35.4C138.316 31.9667 137.2 29.0333 134.966 26.6C132.733 24.1667 129.866 22.95 126.366 22.95ZM158.331 49.25C157.031 49.25 156.048 48.9833 155.381 48.45C155.148 48.2167 155.031 47.6333 155.031 46.7C155.031 45.7333 155.065 44.45 155.131 42.85C154.265 45.0167 153.398 46.6333 152.531 47.7C151.698 48.7333 150.615 49.25 149.281 49.25C147.948 49.25 146.781 48.6333 145.781 47.4C144.781 46.1333 144.281 44.1667 144.281 41.5C144.281 38.8 145.031 36.4167 146.531 34.35C148.065 32.2833 150.065 31.25 152.531 31.25C153.598 31.25 154.798 31.95 156.131 33.35C156.398 32.9833 156.865 32.55 157.531 32.05C158.231 31.5167 158.815 31.25 159.281 31.25C159.781 31.25 160.031 31.8833 160.031 33.15C160.031 33.4833 159.931 34.1333 159.731 35.1C159.565 36.0667 159.365 36.7667 159.131 37.2C158.831 37.9667 158.681 40.6833 158.681 45.35C158.681 46.25 158.781 46.7 158.981 46.7C159.548 46.6667 160.331 45.9667 161.331 44.6C162.331 43.2 163.315 41.4167 164.281 39.25C165.281 37.0833 165.881 36 166.081 36C166.315 36 166.431 36.1333 166.431 36.4C166.431 37.3333 165.948 38.8167 164.981 40.85C162.348 46.45 160.131 49.25 158.331 49.25ZM152.231 33.25C151.298 33.25 150.298 33.95 149.231 35.35C148.198 36.7167 147.681 38.3333 147.681 40.2C147.681 42.0667 147.948 43.6 148.481 44.8C149.048 46 149.781 46.6 150.681 46.6C151.781 46.6 153.398 43.85 155.531 38.35C155.565 38.0833 155.598 37.6333 155.631 37C155.698 36.3333 155.748 35.8333 155.781 35.5C155.481 34.9667 154.948 34.4667 154.181 34C153.448 33.5 152.798 33.25 152.231 33.25ZM171.872 37.8C167.839 37.8 165.289 37.1667 164.222 35.9C163.689 35.2667 163.422 34.55 163.422 33.75C163.422 32.95 163.655 32.35 164.122 31.95C164.622 31.5167 165.139 31.3 165.672 31.3C166.239 31.3 166.705 31.5333 167.072 32C167.439 32.4333 167.622 32.85 167.622 33.25C167.622 33.85 168.289 34.2833 169.622 34.55C170.955 34.7833 172.255 34.9 173.522 34.9C174.822 33.0667 175.739 32.0333 176.272 31.8C176.472 31.7333 176.689 31.7 176.922 31.7C177.455 31.7 177.722 32.2333 177.722 33.3C177.722 34.3667 177.489 35.1833 177.022 35.75C176.555 36.3167 175.739 36.85 174.572 37.35C172.605 39.15 170.672 41.2333 168.772 43.6C169.639 43.8 170.955 44.2 172.722 44.8C174.489 45.3667 175.505 45.65 175.772 45.65C177.139 45.65 178.822 43.4333 180.822 39C181.722 37 182.272 36 182.472 36C182.705 36 182.822 36.25 182.822 36.75C182.822 37.25 182.339 38.6167 181.372 40.85C178.805 46.6167 176.372 49.5 174.072 49.5C173.839 49.5 172.772 49.0833 170.872 48.25C168.972 47.4167 167.539 47 166.572 47C165.739 48.2333 164.939 48.85 164.172 48.85C163.672 48.85 163.422 48.4 163.422 47.5C163.422 46.5667 163.789 45.65 164.522 44.75C165.289 43.8167 166.105 43.35 166.972 43.35C169.305 40.75 170.939 38.9 171.872 37.8ZM186.514 49.25C184.647 49.25 183.164 48.55 182.064 47.15C180.964 45.7167 180.414 44.1 180.414 42.3C180.414 38.6667 181.181 35.9167 182.714 34.05C184.247 32.1833 186.231 31.25 188.664 31.25C189.797 31.25 190.731 31.5667 191.464 32.2C192.197 32.8 192.564 33.6333 192.564 34.7C192.564 36.7 191.714 38.3833 190.014 39.75C188.347 41.0833 186.297 41.7833 183.864 41.85C183.997 43.15 184.431 44.2833 185.164 45.25C185.931 46.1833 186.814 46.65 187.814 46.65C188.814 46.65 189.714 46.4167 190.514 45.95C191.314 45.4833 192.047 44.8167 192.714 43.95C194.114 42.1167 195.314 40.0333 196.314 37.7C196.581 37.1 196.781 36.6667 196.914 36.4C197.081 36.1333 197.247 36 197.414 36C197.614 36 197.714 36.1333 197.714 36.4C197.714 38.0667 196.697 40.5667 194.664 43.9C192.464 47.4667 189.747 49.25 186.514 49.25ZM183.864 40.65C185.831 40.3167 187.264 39.6833 188.164 38.75C189.097 37.8167 189.564 36.6 189.564 35.1C189.564 33.6 189.081 32.85 188.114 32.85C186.947 32.85 185.964 33.6667 185.164 35.3C184.364 36.9 183.931 38.6833 183.864 40.65Z" fill="white"/>
</svg>
