<svg width="185" height="68" viewBox="0 0 185 68" fill="none" xmlns="http://www.w3.org/2000/svg">
<rect x="4" y="3" width="85" height="60" fill="#2E5339"/>
<rect x="89" y="3" width="92" height="60" fill="white"/>
<path d="M26.65 19.05L26.9 17.75C26.7667 15.95 25.55 15.05 23.25 15.05C21.9167 15.05 20.75 15.5333 19.75 16.5C18.7833 17.4333 18.3 18.4333 18.3 19.5C18.3 20.5333 18.7333 21.45 19.6 22.25C20.5 23.0167 21.5667 23.7167 22.8 24.35C24.0667 24.95 25.3167 25.6167 26.55 26.35C27.8167 27.05 28.8833 27.9667 29.75 29.1C30.65 30.2333 31.1 31.5167 31.1 32.95C31.1 35.9167 29.9333 38.25 27.6 39.95C25.2667 41.65 22.75 42.5 20.05 42.5C17.35 42.5 15.1 42.0167 13.3 41.05C11.5 40.05 10.6 38.55 10.6 36.55C10.6 35.4833 10.9667 34.5167 11.7 33.65C12.4333 32.7833 13.4833 32.35 14.85 32.35C15.3833 32.35 15.8667 32.5 16.3 32.8C16.7333 33.1 17 33.5 17.1 34C17.1 34.5 16.8 34.75 16.2 34.75C15.0667 34.75 14.5 35.2333 14.5 36.2C14.5333 37.3 15.05 38.3 16.05 39.2C17.0833 40.1 18.5167 40.55 20.35 40.55C22.2167 40.55 23.8 39.9167 25.1 38.65C26.4333 37.3833 27.1 35.85 27.1 34.05C27.1 32.85 26.65 31.7667 25.75 30.8C24.85 29.8333 23.7667 29.0167 22.5 28.35C21.2333 27.65 19.95 26.95 18.65 26.25C17.3833 25.55 16.3 24.7 15.4 23.7C14.5 22.7 14.05 21.5667 14.05 20.3C14.05 18.0667 15 16.2833 16.9 14.95C18.8333 13.6167 21.0167 12.95 23.45 12.95C25.0833 12.95 26.5667 13.2833 27.9 13.95C29.2333 14.6167 29.9167 15.6333 29.95 17C29.95 17.8 29.75 18.4667 29.35 19C28.95 19.5333 28.4 19.8 27.7 19.8C27.0333 19.8 26.6833 19.55 26.65 19.05ZM45.1258 33.85C42.4924 39.45 40.2591 42.25 38.4258 42.25C36.6258 42.25 35.5591 42.0333 35.2258 41.6C34.9258 41.1667 34.7758 39.7333 34.7758 37.3C34.7758 34.8667 35.0091 31.35 35.4758 26.75C33.8091 26.4167 32.9258 25.7333 32.8258 24.7C32.8258 24.1667 33.1758 23.9 33.8758 23.9C34.5758 23.9 35.1924 24.0333 35.7258 24.3C36.0258 21.9 36.3758 19.4667 36.7758 17C36.8758 16.3667 37.1924 15.7667 37.7258 15.2C38.2591 14.6333 38.7758 14.35 39.2758 14.35C39.7091 14.35 39.9258 15.0333 39.9258 16.4C39.9258 17.0333 39.6924 19.95 39.2258 25.15C40.1258 24.9833 41.1091 24.65 42.1758 24.15C43.2758 23.65 43.9258 23.4 44.1258 23.4C44.7258 23.4 45.0258 23.5833 45.0258 23.95C45.0591 24.2833 44.4424 24.75 43.1758 25.35C41.9091 25.9167 40.5424 26.35 39.0758 26.65C38.6758 31.5167 38.4758 35.2 38.4758 37.7C38.4758 39.0333 38.6758 39.7 39.0758 39.7C39.6758 39.6667 40.4758 38.9667 41.4758 37.6C42.4758 36.2333 43.4591 34.4667 44.4258 32.3C45.4258 30.1 46.0258 29 46.2258 29C46.4591 29 46.5758 29.1333 46.5758 29.4C46.5758 30.3333 46.0924 31.8167 45.1258 33.85ZM58.0344 42.25C56.7344 42.25 55.751 41.9833 55.0844 41.45C54.851 41.2167 54.7344 40.6333 54.7344 39.7C54.7344 38.7333 54.7677 37.45 54.8344 35.85C53.9677 38.0167 53.101 39.6333 52.2344 40.7C51.401 41.7333 50.3177 42.25 48.9844 42.25C47.651 42.25 46.4844 41.6333 45.4844 40.4C44.4844 39.1333 43.9844 37.1667 43.9844 34.5C43.9844 31.8 44.7344 29.4167 46.2344 27.35C47.7677 25.2833 49.7677 24.25 52.2344 24.25C53.301 24.25 54.501 24.95 55.8344 26.35C56.101 25.9833 56.5677 25.55 57.2344 25.05C57.9344 24.5167 58.5177 24.25 58.9844 24.25C59.4844 24.25 59.7344 24.8833 59.7344 26.15C59.7344 26.4833 59.6344 27.1333 59.4344 28.1C59.2677 29.0667 59.0677 29.7667 58.8344 30.2C58.5344 30.9667 58.3844 33.6833 58.3844 38.35C58.3844 39.25 58.4844 39.7 58.6844 39.7C59.251 39.6667 60.0344 38.9667 61.0344 37.6C62.0344 36.2 63.0177 34.4167 63.9844 32.25C64.9844 30.0833 65.5844 29 65.7844 29C66.0177 29 66.1344 29.1333 66.1344 29.4C66.1344 30.3333 65.651 31.8167 64.6844 33.85C62.051 39.45 59.8344 42.25 58.0344 42.25ZM51.9344 26.25C51.001 26.25 50.001 26.95 48.9344 28.35C47.901 29.7167 47.3844 31.3333 47.3844 33.2C47.3844 35.0667 47.651 36.6 48.1844 37.8C48.751 39 49.4844 39.6 50.3844 39.6C51.4844 39.6 53.101 36.85 55.2344 31.35C55.2677 31.0833 55.301 30.6333 55.3344 30C55.401 29.3333 55.451 28.8333 55.4844 28.5C55.1844 27.9667 54.651 27.4667 53.8844 27C53.151 26.5 52.501 26.25 51.9344 26.25ZM63.125 37.65L63.425 32.05C63.425 28.4833 63.5917 26.5333 63.925 26.2C64.2583 25.8667 64.8417 25.3833 65.675 24.75C66.5417 24.0833 67.1583 23.75 67.525 23.75C67.925 23.75 68.175 23.8167 68.275 23.95C68.375 24.0833 68.425 24.35 68.425 24.75C68.425 26.1833 68.1083 27.6333 67.475 29.1C66.975 32.1667 66.725 34.6833 66.725 36.65C66.725 38.6167 66.9583 39.6 67.425 39.6C68.225 39.6 69.1417 38.9 70.175 37.5C71.2417 36.0667 72.325 33.9667 73.425 31.2C73.4583 30.4667 73.4917 29.7 73.525 28.9C73.5583 28.0667 73.5917 27.4667 73.625 27.1C73.6583 26.7 73.675 26.4167 73.675 26.25C73.7083 26.0833 74.175 25.6333 75.075 24.9C75.975 24.1333 76.6583 23.75 77.125 23.75C77.625 23.75 77.875 24.3833 77.875 25.65C77.875 25.9833 77.775 26.6333 77.575 27.6C77.4083 28.5667 77.2083 29.2667 76.975 29.7C76.7083 32.0667 76.525 34.1333 76.425 35.9C79.6917 31.7667 81.425 29.5833 81.625 29.35C81.8583 29.1167 82.0583 29 82.225 29C82.5583 29 82.725 29.1667 82.725 29.5C82.725 29.7 82.6583 29.9167 82.525 30.15C81.4583 31.7167 79.3583 34.4667 76.225 38.4C76.025 42.3667 75.8917 45.0667 75.825 46.5C75.6583 50.7333 75.0583 53.7 74.025 55.4C73.025 57.1333 71.225 58 68.625 58C67.4917 58 66.425 57.65 65.425 56.95C64.4583 56.2833 63.975 55.1 63.975 53.4C63.975 51.7333 64.6083 50.0167 65.875 48.25C67.175 46.4833 69.525 43.7667 72.925 40.1L73.225 34.65C72.0917 37.15 70.975 39.05 69.875 40.35C68.775 41.6167 67.5583 42.25 66.225 42.25C64.8917 42.25 64.0417 41.9167 63.675 41.25C63.3083 40.5833 63.125 39.3833 63.125 37.65ZM72.775 42.45C68.975 46.55 67.075 49.8333 67.075 52.3C67.075 53.4333 67.275 54.3667 67.675 55.1C68.075 55.8333 68.625 56.2 69.325 56.2C70.3917 56.2 71.1417 55.6167 71.575 54.45C72.0083 53.2833 72.325 50.9167 72.525 47.35L72.775 42.45Z" fill="white"/>
<path d="M94.4664 24.05L94.7664 27.25C94.7664 27.5833 94.5831 27.85 94.2164 28.05C93.8831 28.25 93.5997 28.35 93.3664 28.35C92.8997 28.35 92.4831 27.9833 92.1164 27.25C91.7831 26.4833 91.6164 25.7833 91.6164 25.15C91.6164 22.6833 92.4664 20.6 94.1664 18.9C95.8997 17.1667 98.0831 15.8667 100.716 15C100.716 13.8667 100.95 12.8 101.416 11.8C101.916 10.7667 102.683 10.25 103.716 10.25C104.15 10.25 104.366 10.8667 104.366 12.1V14.2C105.433 14.0667 106.216 14 106.716 14C111.15 14 114.65 15.25 117.216 17.75C119.816 20.2167 121.116 23.3333 121.116 27.1C121.116 29.7 120.65 32 119.716 34C118.783 36 117.516 37.5833 115.916 38.75C112.716 41.0833 108.883 42.25 104.416 42.25H103.366C103.266 43.2167 103.133 43.7 102.966 43.7C101.4 43.7 100.35 43.4833 99.8164 43.05C99.5831 42.8167 99.4497 42.4167 99.4164 41.85C96.4497 41.0167 94.9664 40.1 94.9664 39.1C94.9664 38.7667 95.0831 38.5167 95.3164 38.35C95.5497 38.15 95.7997 38.05 96.0664 38.05C96.3664 38.05 97.4831 38.45 99.4164 39.25C99.7164 30.5167 100.1 23.0167 100.566 16.75C98.7331 17.3833 97.2497 18.3333 96.1164 19.6C95.0164 20.8667 94.4664 22.35 94.4664 24.05ZM105.366 15.95C104.9 15.95 104.55 15.9667 104.316 16C104.183 21.8333 104.016 26.7333 103.816 30.7C103.65 35.8667 103.533 39.1167 103.466 40.45C104.133 40.55 104.833 40.6 105.566 40.6C108.733 40.6 111.483 39.4333 113.816 37.1C116.15 34.7333 117.316 31.8333 117.316 28.4C117.316 24.9667 116.2 22.0333 113.966 19.6C111.733 17.1667 108.866 15.95 105.366 15.95ZM137.331 42.25C136.031 42.25 135.048 41.9833 134.381 41.45C134.148 41.2167 134.031 40.6333 134.031 39.7C134.031 38.7333 134.065 37.45 134.131 35.85C133.265 38.0167 132.398 39.6333 131.531 40.7C130.698 41.7333 129.615 42.25 128.281 42.25C126.948 42.25 125.781 41.6333 124.781 40.4C123.781 39.1333 123.281 37.1667 123.281 34.5C123.281 31.8 124.031 29.4167 125.531 27.35C127.065 25.2833 129.065 24.25 131.531 24.25C132.598 24.25 133.798 24.95 135.131 26.35C135.398 25.9833 135.865 25.55 136.531 25.05C137.231 24.5167 137.815 24.25 138.281 24.25C138.781 24.25 139.031 24.8833 139.031 26.15C139.031 26.4833 138.931 27.1333 138.731 28.1C138.565 29.0667 138.365 29.7667 138.131 30.2C137.831 30.9667 137.681 33.6833 137.681 38.35C137.681 39.25 137.781 39.7 137.981 39.7C138.548 39.6667 139.331 38.9667 140.331 37.6C141.331 36.2 142.315 34.4167 143.281 32.25C144.281 30.0833 144.881 29 145.081 29C145.315 29 145.431 29.1333 145.431 29.4C145.431 30.3333 144.948 31.8167 143.981 33.85C141.348 39.45 139.131 42.25 137.331 42.25ZM131.231 26.25C130.298 26.25 129.298 26.95 128.231 28.35C127.198 29.7167 126.681 31.3333 126.681 33.2C126.681 35.0667 126.948 36.6 127.481 37.8C128.048 39 128.781 39.6 129.681 39.6C130.781 39.6 132.398 36.85 134.531 31.35C134.565 31.0833 134.598 30.6333 134.631 30C134.698 29.3333 134.748 28.8333 134.781 28.5C134.481 27.9667 133.948 27.4667 133.181 27C132.448 26.5 131.798 26.25 131.231 26.25ZM150.872 30.8C146.839 30.8 144.289 30.1667 143.222 28.9C142.689 28.2667 142.422 27.55 142.422 26.75C142.422 25.95 142.655 25.35 143.122 24.95C143.622 24.5167 144.139 24.3 144.672 24.3C145.239 24.3 145.705 24.5333 146.072 25C146.439 25.4333 146.622 25.85 146.622 26.25C146.622 26.85 147.289 27.2833 148.622 27.55C149.955 27.7833 151.255 27.9 152.522 27.9C153.822 26.0667 154.739 25.0333 155.272 24.8C155.472 24.7333 155.689 24.7 155.922 24.7C156.455 24.7 156.722 25.2333 156.722 26.3C156.722 27.3667 156.489 28.1833 156.022 28.75C155.555 29.3167 154.739 29.85 153.572 30.35C151.605 32.15 149.672 34.2333 147.772 36.6C148.639 36.8 149.955 37.2 151.722 37.8C153.489 38.3667 154.505 38.65 154.772 38.65C156.139 38.65 157.822 36.4333 159.822 32C160.722 30 161.272 29 161.472 29C161.705 29 161.822 29.25 161.822 29.75C161.822 30.25 161.339 31.6167 160.372 33.85C157.805 39.6167 155.372 42.5 153.072 42.5C152.839 42.5 151.772 42.0833 149.872 41.25C147.972 40.4167 146.539 40 145.572 40C144.739 41.2333 143.939 41.85 143.172 41.85C142.672 41.85 142.422 41.4 142.422 40.5C142.422 39.5667 142.789 38.65 143.522 37.75C144.289 36.8167 145.105 36.35 145.972 36.35C148.305 33.75 149.939 31.9 150.872 30.8ZM165.514 42.25C163.647 42.25 162.164 41.55 161.064 40.15C159.964 38.7167 159.414 37.1 159.414 35.3C159.414 31.6667 160.181 28.9167 161.714 27.05C163.247 25.1833 165.231 24.25 167.664 24.25C168.797 24.25 169.731 24.5667 170.464 25.2C171.197 25.8 171.564 26.6333 171.564 27.7C171.564 29.7 170.714 31.3833 169.014 32.75C167.347 34.0833 165.297 34.7833 162.864 34.85C162.997 36.15 163.431 37.2833 164.164 38.25C164.931 39.1833 165.814 39.65 166.814 39.65C167.814 39.65 168.714 39.4167 169.514 38.95C170.314 38.4833 171.047 37.8167 171.714 36.95C173.114 35.1167 174.314 33.0333 175.314 30.7C175.581 30.1 175.781 29.6667 175.914 29.4C176.081 29.1333 176.247 29 176.414 29C176.614 29 176.714 29.1333 176.714 29.4C176.714 31.0667 175.697 33.5667 173.664 36.9C171.464 40.4667 168.747 42.25 165.514 42.25ZM162.864 33.65C164.831 33.3167 166.264 32.6833 167.164 31.75C168.097 30.8167 168.564 29.6 168.564 28.1C168.564 26.6 168.081 25.85 167.114 25.85C165.947 25.85 164.964 26.6667 164.164 28.3C163.364 29.9 162.931 31.6833 162.864 33.65Z" fill="#2E5339"/>
</svg>
