<svg width="153" height="49" viewBox="0 0 153 49" fill="none" xmlns="http://www.w3.org/2000/svg">
<path d="M22.272 33.592C22.272 34.8507 21.0453 35.48 18.592 35.48C18.0587 35.48 17.7387 35.2133 17.632 34.68C17.5467 34.1253 17.504 33.4427 17.504 32.632C17.504 31.8213 17.5573 30.9573 17.664 30.04C17.792 29.1013 17.952 28.088 18.144 27C18.5067 24.9093 19.0187 22.6587 19.68 20.248C20.3627 17.816 21.0347 15.9387 21.696 14.616C20.352 14.7013 19.0187 14.9467 17.696 15.352C16.3733 15.736 15.4347 16.0133 14.88 16.184C14.3253 16.3333 13.8667 16.408 13.504 16.408C13.1413 16.408 12.96 16.2907 12.96 16.056C12.96 15.7787 13.1733 15.3733 13.6 14.84C14.0267 14.2853 14.6347 13.7307 15.424 13.176C17.4293 11.8107 19.6587 11.1173 22.112 11.096L32.64 11.192C33.216 11.192 33.504 11.416 33.504 11.864C33.504 11.992 33.4187 12.2267 33.248 12.568C33.0773 12.888 32.928 13.24 32.8 13.624C32.5227 14.392 31.936 14.776 31.04 14.776C30.1653 14.776 28.064 14.712 24.736 14.584C24.6507 15.5227 24.48 16.728 24.224 18.2C23.968 19.6507 23.6907 21.24 23.392 22.968C22.6667 27.384 22.2933 30.9253 22.272 33.592ZM34.007 29.624L34.199 33.528C34.199 34.04 33.9323 34.4987 33.399 34.904C32.8657 35.3093 32.1403 35.512 31.223 35.512C30.6897 35.512 30.3163 35.2347 30.103 34.68C29.911 34.1253 29.815 33.3147 29.815 32.248C29.815 30.008 29.9217 28.2587 30.135 27C30.3697 25.72 30.8177 24.4293 31.479 23.128C30.4977 22.1893 30.007 21.3787 30.007 20.696C30.007 19.2667 30.775 18.552 32.311 18.552C33.1003 18.552 33.7937 18.968 34.391 19.8C34.8177 20.376 35.127 21.048 35.319 21.816C35.6177 21.9227 35.991 21.976 36.439 21.976C37.0577 21.976 37.7723 21.7733 38.583 21.368L39.415 20.952C39.671 20.824 39.895 20.76 40.087 20.76C40.7057 20.76 41.3243 21.6667 41.943 23.48C41.751 24.312 41.5377 25.112 41.303 25.88C41.0897 26.648 40.8337 27.576 40.535 28.664C40.2363 29.752 40.0763 30.488 40.055 30.872C40.055 31.2347 40.1723 31.416 40.407 31.416C40.727 31.416 41.1217 31.2133 41.591 30.808C42.0603 30.4027 42.5297 29.9653 42.999 29.496C43.4683 29.0053 43.895 28.5573 44.279 28.152C44.6843 27.7467 44.9617 27.544 45.111 27.544C45.4097 27.544 45.559 27.9067 45.559 28.632C45.559 30.104 44.9083 31.5547 43.607 32.984C42.327 34.4133 40.855 35.1173 39.191 35.096C38.2097 35.096 37.4737 34.7013 36.983 33.912C36.4923 33.1227 36.2363 32.1627 36.215 31.032C36.215 28.792 36.7163 26.6693 37.719 24.664C37.2497 24.856 36.7163 24.952 36.119 24.952C35.543 24.952 35.127 24.9307 34.871 24.888C34.679 25.6987 34.487 26.52 34.295 27.352C34.103 28.1627 34.007 28.92 34.007 29.624ZM47.8 35.096C45.6667 35.096 44.6 33.1013 44.6 29.112C44.6 26.936 44.8667 24.9627 45.4 23.192C46.232 20.4613 47.1707 19.096 48.216 19.096C48.8347 19.096 49.3253 19.512 49.688 20.344C49.9867 20.984 50.1253 21.6133 50.104 22.232C50.104 23.0853 49.848 24.5893 49.336 26.744C48.8453 28.6213 48.6 29.784 48.6 30.232C48.6 30.68 48.7067 30.9893 48.92 31.16C49.1547 31.3307 49.4213 31.416 49.72 31.416C50.04 31.416 50.4347 31.2133 50.904 30.808C51.3733 30.4027 51.8427 29.9653 52.312 29.496C52.7813 29.0053 53.208 28.5573 53.592 28.152C53.9973 27.7467 54.2747 27.544 54.424 27.544C54.7227 27.544 54.872 27.9067 54.872 28.632C54.872 30.1253 54.1147 31.5867 52.6 33.016C51.1067 34.424 49.5067 35.1173 47.8 35.096ZM49.112 16.504C48.536 15.6507 48.248 14.7333 48.248 13.752C48.248 12.7707 48.3973 11.96 48.696 11.32C49.016 10.6587 49.3147 10.1787 49.592 9.88C49.8693 9.56 50.1893 9.4 50.552 9.4C51.1493 9.4 51.6933 9.848 52.184 10.744C52.6747 11.6187 52.92 12.3547 52.92 12.952C52.92 14.0613 52.5253 14.936 51.736 15.576C50.968 16.1947 50.0933 16.504 49.112 16.504ZM72.9205 27.448C73.3045 27.448 73.4965 27.9387 73.4965 28.92C73.4965 29.4533 73.2725 30.104 72.8245 30.872C72.3765 31.6187 71.7898 32.312 71.0645 32.952C70.3605 33.5707 69.5712 34.0827 68.6965 34.488C67.8218 34.8933 66.9685 35.096 66.1365 35.096C65.0058 35.096 64.2485 34.104 63.8645 32.12C63.3098 33.0373 62.5845 33.7947 61.6885 34.392C60.7925 34.968 59.5872 35.256 58.0725 35.256C56.5792 35.256 55.3738 34.7867 54.4565 33.848C53.5392 32.9093 53.0912 31.768 53.1125 30.424C53.1125 26.7973 54.3178 23.9387 56.7285 21.848C57.7525 20.9733 58.7018 20.3973 59.5765 20.12C60.4725 19.8427 61.4112 19.704 62.3925 19.704C63.3738 19.704 64.1738 19.8747 64.7925 20.216C65.0912 19.5973 65.4325 19.288 65.8165 19.288C66.5632 19.288 67.2672 19.6187 67.9285 20.28C68.6112 20.92 68.9525 21.528 68.9525 22.104C68.6538 22.808 68.2165 23.6507 67.6405 24.632C67.4698 25.6133 67.3845 26.9893 67.3845 28.76C67.3845 30.5307 67.6085 31.416 68.0565 31.416C68.6112 31.416 69.9552 30.3067 72.0885 28.088C72.4725 27.6613 72.7498 27.448 72.9205 27.448ZM57.8165 29.368C57.8165 31.0107 58.4245 31.832 59.6405 31.832C60.9418 31.8107 62.0192 31.1173 62.8725 29.752C63.1712 29.2827 63.4165 28.7067 63.6085 28.024C63.6085 25.6347 63.8218 23.5867 64.2485 21.88C62.5205 22.2213 61.0165 23.0533 59.7365 24.376C58.4565 25.6987 57.8165 27.3627 57.8165 29.368ZM84.1535 20.44C84.4522 19.5013 84.9322 19.032 85.5935 19.032C86.1908 19.0533 86.7562 19.48 87.2895 20.312C87.8228 21.1227 88.0895 21.752 88.0895 22.2C88.0468 23.0747 87.7802 24.472 87.2895 26.392C86.7988 28.2907 86.1055 30.7653 85.2095 33.816C86.6175 32.728 88.0042 31.3093 89.3695 29.56C89.8388 28.9627 90.2335 28.4827 90.5535 28.12C90.8948 27.736 91.1722 27.544 91.3855 27.544C91.6842 27.544 91.8335 27.8853 91.8335 28.568C91.8335 29.912 91.0762 31.48 89.5615 33.272C88.0682 35.064 86.2335 36.4613 84.0575 37.464C83.8015 38.3173 83.5242 39.128 83.2255 39.896C82.9268 40.664 82.5428 41.336 82.0735 41.912C81.0495 43.1493 79.4922 43.768 77.4015 43.768C75.9935 43.768 74.7882 43.3627 73.7855 42.552C72.8042 41.7413 72.3135 40.728 72.3135 39.512C72.3135 38.8507 72.5268 38.328 72.9535 37.944C73.4015 37.56 74.0095 37.2507 74.7775 37.016C75.5455 36.7813 76.4415 36.5787 77.4655 36.408C78.5108 36.2373 79.6202 36.024 80.7935 35.768C80.9002 35.4053 80.9855 35.0533 81.0495 34.712C81.1348 34.3493 81.2202 33.9867 81.3055 33.624C80.1322 34.712 78.6922 35.256 76.9855 35.256C75.3002 35.256 73.9988 34.7867 73.0815 33.848C72.1642 32.9093 71.7162 31.768 71.7375 30.424C71.7375 26.7973 72.9428 23.9387 75.3535 21.848C77.0175 20.4187 78.7455 19.704 80.5375 19.704C81.1562 19.704 81.8175 19.7787 82.5215 19.928C83.2468 20.0773 83.7908 20.248 84.1535 20.44ZM76.4415 29.368C76.4415 31.0107 77.0495 31.832 78.2655 31.832C78.9482 31.832 79.6415 31.576 80.3455 31.064C81.0495 30.552 81.6148 29.72 82.0415 28.568C82.3615 27.0747 82.6922 25.6987 83.0335 24.44C83.3962 23.1813 83.6415 22.3067 83.7695 21.816C81.9775 22.0507 80.3028 22.8507 78.7455 24.216C77.2095 25.5813 76.4415 27.2987 76.4415 29.368ZM79.8015 38.712C79.0335 38.8613 78.3615 38.9787 77.7855 39.064C77.2095 39.1493 76.7295 39.224 76.3455 39.288C75.9828 39.352 75.7055 39.4267 75.5135 39.512C75.3428 39.5973 75.2575 39.736 75.2575 39.928C75.2575 40.312 75.4922 40.6427 75.9615 40.92C76.4522 41.1973 76.9322 41.3253 77.4015 41.304C78.2122 41.304 79.0122 40.44 79.8015 38.712ZM102.497 20.44C102.796 19.5013 103.276 19.032 103.937 19.032C104.535 19.0533 105.1 19.48 105.633 20.312C106.167 21.1227 106.433 21.752 106.433 22.2C106.391 23.0747 106.124 24.472 105.633 26.392C105.143 28.2907 104.449 30.7653 103.553 33.816C104.961 32.728 106.348 31.3093 107.713 29.56C108.183 28.9627 108.577 28.4827 108.897 28.12C109.239 27.736 109.516 27.544 109.729 27.544C110.028 27.544 110.177 27.8853 110.177 28.568C110.177 29.912 109.42 31.48 107.905 33.272C106.412 35.064 104.577 36.4613 102.401 37.464C102.145 38.3173 101.868 39.128 101.569 39.896C101.271 40.664 100.887 41.336 100.417 41.912C99.3933 43.1493 97.8359 43.768 95.7453 43.768C94.3373 43.768 93.1319 43.3627 92.1293 42.552C91.1479 41.7413 90.6573 40.728 90.6573 39.512C90.6573 38.8507 90.8706 38.328 91.2973 37.944C91.7453 37.56 92.3533 37.2507 93.1213 37.016C93.8893 36.7813 94.7853 36.5787 95.8093 36.408C96.8546 36.2373 97.9639 36.024 99.1373 35.768C99.2439 35.4053 99.3293 35.0533 99.3933 34.712C99.4786 34.3493 99.5639 33.9867 99.6493 33.624C98.4759 34.712 97.0359 35.256 95.3293 35.256C93.6439 35.256 92.3426 34.7867 91.4253 33.848C90.5079 32.9093 90.0599 31.768 90.0813 30.424C90.0813 26.7973 91.2866 23.9387 93.6973 21.848C95.3613 20.4187 97.0893 19.704 98.8813 19.704C99.4999 19.704 100.161 19.7787 100.865 19.928C101.591 20.0773 102.135 20.248 102.497 20.44ZM94.7853 29.368C94.7853 31.0107 95.3933 31.832 96.6093 31.832C97.2919 31.832 97.9853 31.576 98.6892 31.064C99.3933 30.552 99.9586 29.72 100.385 28.568C100.705 27.0747 101.036 25.6987 101.377 24.44C101.74 23.1813 101.985 22.3067 102.113 21.816C100.321 22.0507 98.6466 22.8507 97.0893 24.216C95.5533 25.5813 94.7853 27.2987 94.7853 29.368ZM98.1453 38.712C97.3773 38.8613 96.7053 38.9787 96.1293 39.064C95.5533 39.1493 95.0733 39.224 94.6893 39.288C94.3266 39.352 94.0493 39.4267 93.8573 39.512C93.6866 39.5973 93.6013 39.736 93.6013 39.928C93.6013 40.312 93.8359 40.6427 94.3053 40.92C94.7959 41.1973 95.2759 41.3253 95.7453 41.304C96.5559 41.304 97.3559 40.44 98.1453 38.712ZM112.425 35.096C110.292 35.096 109.225 33.1013 109.225 29.112C109.225 26.936 109.492 24.9627 110.025 23.192C110.857 20.4613 111.796 19.096 112.841 19.096C113.46 19.096 113.95 19.512 114.313 20.344C114.612 20.984 114.75 21.6133 114.729 22.232C114.729 23.0853 114.473 24.5893 113.961 26.744C113.47 28.6213 113.225 29.784 113.225 30.232C113.225 30.68 113.332 30.9893 113.545 31.16C113.78 31.3307 114.046 31.416 114.345 31.416C114.665 31.416 115.06 31.2133 115.529 30.808C115.998 30.4027 116.468 29.9653 116.937 29.496C117.406 29.0053 117.833 28.5573 118.217 28.152C118.622 27.7467 118.9 27.544 119.049 27.544C119.348 27.544 119.497 27.9067 119.497 28.632C119.497 30.1253 118.74 31.5867 117.225 33.016C115.732 34.424 114.132 35.1173 112.425 35.096ZM113.737 16.504C113.161 15.6507 112.873 14.7333 112.873 13.752C112.873 12.7707 113.022 11.96 113.321 11.32C113.641 10.6587 113.94 10.1787 114.217 9.88C114.494 9.56 114.814 9.4 115.177 9.4C115.774 9.4 116.318 9.848 116.809 10.744C117.3 11.6187 117.545 12.3547 117.545 12.952C117.545 14.0613 117.15 14.936 116.361 15.576C115.593 16.1947 114.718 16.504 113.737 16.504ZM130.826 32.28C129.14 34.264 127.114 35.256 124.746 35.256C122.399 35.256 120.639 34.6587 119.466 33.464C118.292 32.248 117.716 30.744 117.738 28.952C117.716 26.4133 118.516 24.2267 120.138 22.392C121.759 20.5573 123.882 19.64 126.506 19.64C127.7 19.64 128.66 19.7893 129.386 20.088C130.644 20.6 131.274 21.08 131.274 21.528C131.274 21.8693 130.388 22.0507 128.618 22.072C126.868 22.072 125.396 22.68 124.202 23.896C123.028 25.0907 122.442 26.6053 122.442 28.44C122.442 29.4 122.719 30.2107 123.274 30.872C123.85 31.512 124.65 31.832 125.674 31.832C126.719 31.832 127.583 31.6187 128.266 31.192C126.751 30.168 125.994 28.6853 125.994 26.744C125.972 25.72 126.335 24.792 127.082 23.96C127.85 23.1067 128.82 22.68 129.994 22.68C131.188 22.6587 132.042 22.9787 132.554 23.64C133.066 24.3013 133.322 25.1547 133.322 26.2C133.322 27.224 133.076 28.312 132.586 29.464H132.778C133.716 29.4427 134.527 29.112 135.21 28.472C135.466 28.216 135.679 27.992 135.85 27.8C136.042 27.608 136.234 27.512 136.426 27.512C136.724 27.512 136.874 27.864 136.874 28.568C136.874 29.8693 136.49 30.8507 135.722 31.512C134.954 32.152 134.1 32.472 133.162 32.472C132.244 32.472 131.466 32.408 130.826 32.28ZM130.538 28.568C130.9 27.8 131.082 27.0533 131.082 26.328C131.082 25.6027 130.847 25.24 130.378 25.24C130.186 25.24 130.026 25.3787 129.898 25.656C129.77 25.9333 129.706 26.2 129.706 26.456C129.706 27.3093 129.983 28.0133 130.538 28.568Z" fill="#3A71FE"/>
</svg>
